<mxfile host="app.diagrams.net" modified="2020-07-22T10:10:58.272Z" agent="5.0 (Windows NT 10.0; Win64; x64) AppleWebKit/537.36 (KHTML, like Gecko) Chrome/86.0.4207.0 Safari/537.36" etag="6ToyoIdJLSt446hfT48F" version="13.5.0" type="github">
  <diagram id="2gZC4xCkloj7wIMZnU4y" name="Page-1">
    <mxGraphModel dx="671" dy="518" grid="1" gridSize="10" guides="1" tooltips="1" connect="1" arrows="1" fold="1" page="1" pageScale="1" pageWidth="827" pageHeight="1169" math="0" shadow="0">
      <root>
        <mxCell id="0" />
        <mxCell id="1" parent="0" />
        <mxCell id="s3Yb5ll5d97BCo_epypD-1" value="Infection&lt;br&gt;Status" style="shape=ellipse;html=1;dashed=0;whitespace=wrap;aspect=fixed;perimeter=ellipsePerimeter;" parent="1" vertex="1">
          <mxGeometry x="120" y="180" width="80" height="80" as="geometry" />
        </mxCell>
        <mxCell id="s3Yb5ll5d97BCo_epypD-2" value="Government&lt;br&gt;Measures" style="shape=ellipse;html=1;dashed=0;whitespace=wrap;aspect=fixed;perimeter=ellipsePerimeter;" parent="1" vertex="1">
          <mxGeometry x="240" y="180" width="80" height="80" as="geometry" />
        </mxCell>
        <mxCell id="AfNmqyuF7CT5GizNvHW4-1" value="Public&lt;br&gt;Reaction" style="shape=ellipse;html=1;dashed=0;whitespace=wrap;aspect=fixed;perimeter=ellipsePerimeter;" vertex="1" parent="1">
          <mxGeometry x="360" y="180" width="80" height="80" as="geometry" />
        </mxCell>
        <mxCell id="AfNmqyuF7CT5GizNvHW4-4" value="" style="endArrow=classic;html=1;entryX=0;entryY=0;entryDx=0;entryDy=0;exitX=1;exitY=0;exitDx=0;exitDy=0;edgeStyle=orthogonalEdgeStyle;curved=1;" edge="1" parent="1" source="s3Yb5ll5d97BCo_epypD-2" target="AfNmqyuF7CT5GizNvHW4-1">
          <mxGeometry width="50" height="50" relative="1" as="geometry">
            <mxPoint x="290" y="370" as="sourcePoint" />
            <mxPoint x="340" y="320" as="targetPoint" />
            <Array as="points">
              <mxPoint x="308" y="170" />
              <mxPoint x="372" y="170" />
            </Array>
          </mxGeometry>
        </mxCell>
        <mxCell id="AfNmqyuF7CT5GizNvHW4-5" value="" style="endArrow=classic;html=1;entryX=0;entryY=0;entryDx=0;entryDy=0;exitX=1;exitY=0;exitDx=0;exitDy=0;edgeStyle=orthogonalEdgeStyle;curved=1;" edge="1" parent="1" source="s3Yb5ll5d97BCo_epypD-1" target="s3Yb5ll5d97BCo_epypD-2">
          <mxGeometry width="50" height="50" relative="1" as="geometry">
            <mxPoint x="290" y="370" as="sourcePoint" />
            <mxPoint x="340" y="320" as="targetPoint" />
            <Array as="points">
              <mxPoint x="188" y="170" />
              <mxPoint x="252" y="170" />
            </Array>
          </mxGeometry>
        </mxCell>
        <mxCell id="AfNmqyuF7CT5GizNvHW4-6" value="Economic&lt;br&gt;Reaction" style="shape=ellipse;html=1;dashed=0;whitespace=wrap;aspect=fixed;perimeter=ellipsePerimeter;" vertex="1" parent="1">
          <mxGeometry x="480" y="180" width="80" height="80" as="geometry" />
        </mxCell>
        <mxCell id="AfNmqyuF7CT5GizNvHW4-7" value="" style="endArrow=classic;html=1;entryX=0;entryY=0;entryDx=0;entryDy=0;exitX=1;exitY=0;exitDx=0;exitDy=0;edgeStyle=orthogonalEdgeStyle;curved=1;" edge="1" parent="1" source="s3Yb5ll5d97BCo_epypD-2" target="AfNmqyuF7CT5GizNvHW4-6">
          <mxGeometry width="50" height="50" relative="1" as="geometry">
            <mxPoint x="290" y="370" as="sourcePoint" />
            <mxPoint x="340" y="320" as="targetPoint" />
            <Array as="points">
              <mxPoint x="308" y="160" />
              <mxPoint x="492" y="160" />
            </Array>
          </mxGeometry>
        </mxCell>
        <mxCell id="AfNmqyuF7CT5GizNvHW4-8" value="" style="endArrow=classic;html=1;entryX=0;entryY=0;entryDx=0;entryDy=0;exitX=1;exitY=0;exitDx=0;exitDy=0;edgeStyle=orthogonalEdgeStyle;curved=1;" edge="1" parent="1" source="AfNmqyuF7CT5GizNvHW4-1" target="AfNmqyuF7CT5GizNvHW4-6">
          <mxGeometry width="50" height="50" relative="1" as="geometry">
            <mxPoint x="290" y="370" as="sourcePoint" />
            <mxPoint x="340" y="320" as="targetPoint" />
            <Array as="points">
              <mxPoint x="428" y="170" />
              <mxPoint x="492" y="170" />
            </Array>
          </mxGeometry>
        </mxCell>
      </root>
    </mxGraphModel>
  </diagram>
</mxfile>
